<?xml version="1.0" standalone="no"?>
<!DOCTYPE svg PUBLIC "-//W3C//DTD SVG 20010904//EN"
 "http://www.w3.org/TR/2001/REC-SVG-20010904/DTD/svg10.dtd">
<svg version="1.0" xmlns="http://www.w3.org/2000/svg"
 width="1563.000000pt" height="1563.000000pt" viewBox="0 0 1563.000000 1563.000000"
 preserveAspectRatio="xMidYMid meet">

<g transform="translate(0.000000,1563.000000) scale(0.100000,-0.100000)"
fill="#000000" stroke="none">
<path d="M7420 15303 c-946 -50 -1920 -287 -2726 -664 -49 -23 -116 -54 -149
-69 -104 -47 -404 -209 -570 -308 -850 -505 -1625 -1210 -2216 -2012 -78 -106
-96 -132 -139 -195 -269 -402 -363 -563 -546 -935 -156 -319 -204 -425 -204
-449 0 -7 -4 -9 -10 -6 -6 4 -7 -1 -3 -11 5 -13 3 -15 -7 -9 -8 5 -11 4 -7 -1
7 -12 -33 -129 -56 -165 -9 -14 -14 -29 -10 -32 3 -4 1 -7 -6 -7 -7 0 -9 -5
-5 -11 6 -11 1 -26 -36 -102 -11 -21 -17 -46 -14 -55 5 -14 4 -14 -4 -3 -9 12
-12 10 -17 -11 -4 -15 -4 -32 1 -39 4 -8 3 -9 -4 -5 -7 4 -12 0 -13 -11 -1
-21 -7 -58 -15 -92 -4 -20 -7 -22 -15 -10 -7 11 -9 8 -11 -11 -2 -14 -5 142
-8 345 l-5 370 -3 -402 c-2 -337 -4 -404 -17 -416 -20 -20 -27 -69 -12 -79 8
-5 7 -8 -5 -8 -12 0 -18 -8 -19 -25 -1 -24 -3 -35 -9 -52 -1 -5 -2 -11 -1 -15
0 -5 -3 -8 -9 -8 -15 0 -13 781 2 815 14 31 3 45 -16 19 -18 -23 -28 -56 -15
-48 15 9 10 -7 -11 -33 -11 -15 -18 -34 -15 -44 3 -9 0 -21 -6 -25 -8 -5 -9
-3 -4 6 5 9 4 11 -4 6 -6 -4 -11 -13 -10 -19 1 -7 -1 -19 -4 -27 -3 -8 -13
-33 -20 -55 -8 -22 -18 -49 -22 -59 -6 -14 -5 -17 3 -12 15 9 5 -20 -18 -54
-27 -39 -73 -197 -63 -213 4 -6 1 -7 -7 -2 -10 6 -12 3 -8 -13 4 -13 2 -20 -4
-16 -5 3 -8 0 -7 -7 2 -8 -9 -52 -23 -99 -101 -339 -200 -843 -239 -1220 -10
-102 -24 -237 -31 -300 -7 -71 -12 -296 -12 -585 0 -439 2 -488 27 -745 15
-151 36 -324 47 -385 10 -60 21 -130 25 -155 15 -102 66 -364 85 -436 11 -43
20 -86 20 -97 0 -24 40 -158 51 -173 5 -6 6 -13 3 -16 -3 -3 7 -46 22 -94 29
-92 30 -97 32 -127 1 -10 6 -15 12 -12 5 3 7 0 4 -9 -3 -8 -2 -21 2 -28 5 -7
9 -15 9 -18 8 -53 36 -140 46 -140 7 0 20 -45 24 -80 3 -32 17 -60 26 -55 5 3
6 0 3 -8 -2 -7 1 -27 7 -43 7 -16 11 -34 10 -41 -1 -6 4 -15 10 -19 8 -5 9 -3
4 6 -5 9 -4 11 4 6 7 -4 11 -17 9 -29 -2 -15 2 -21 11 -19 12 3 12 0 1 -12 -7
-9 -8 -16 -2 -16 5 0 10 -10 10 -22 0 -13 5 -36 11 -52 9 -23 14 -27 24 -17 9
9 9 16 -1 31 -9 15 -12 120 -11 422 1 295 4 394 11 371 6 -18 14 -33 18 -33 3
0 5 -16 4 -35 -2 -19 1 -35 6 -35 6 0 10 -13 10 -30 0 -16 5 -30 11 -30 5 0 7
-5 4 -10 -3 -6 -1 -10 4 -10 8 0 11 -115 11 -366 0 -312 -2 -368 -15 -381 -8
-8 -12 -19 -9 -25 4 -7 9 -6 14 2 6 9 9 8 13 -6 2 -10 6 145 7 346 1 201 4
357 7 348 2 -10 11 -18 19 -18 8 0 14 -11 15 -27 0 -16 3 -37 5 -48 3 -11 6
-26 6 -32 1 -7 5 -13 10 -13 5 0 7 -4 3 -9 -3 -5 9 -37 26 -71 17 -34 32 -72
33 -85 0 -13 4 -21 7 -19 4 2 7 -8 7 -22 0 -15 3 -29 8 -33 16 -11 62 -123 67
-161 1 -8 8 -19 15 -23 6 -4 12 -14 12 -21 0 -17 31 -88 123 -286 419 -900
1010 -1707 1737 -2374 528 -485 1067 -859 1695 -1176 364 -184 595 -281 972
-410 1520 -520 3272 -524 4783 -11 414 140 679 252 1045 440 1069 550 1989
1347 2697 2336 597 835 1019 1805 1227 2820 243 1184 194 2449 -139 3600 -397
1375 -1179 2604 -2257 3552 -1264 1110 -2827 1753 -4510 1853 -153 9 -676 11
-823 3z m-395 -2649 c164 -44 292 -115 399 -221 74 -73 137 -171 169 -264 l27
-75 0 -2547 c0 -1523 -4 -2554 -9 -2565 -15 -28 -41 -89 -41 -96 0 -11 -75
-109 -119 -154 -60 -63 -193 -143 -291 -175 -120 -39 -138 -42 -265 -41 -136
1 -165 7 -277 58 -149 68 -275 235 -303 399 -9 58 -26 87 -48 87 -11 0 -53 16
-93 35 -54 26 -86 50 -120 90 -50 57 -58 72 -108 195 l-31 75 -65 21 c-126 41
-208 99 -285 204 -41 56 -90 153 -99 197 -9 41 -20 49 -93 68 -202 52 -380
231 -454 457 -68 207 -25 522 89 648 27 31 28 52 1 76 -29 26 -104 151 -120
199 -7 22 -16 45 -21 50 -12 17 -28 135 -28 205 0 136 34 249 94 313 14 15 26
31 26 35 0 4 -20 34 -45 67 -46 60 -90 144 -106 200 -45 160 -49 182 -49 327
0 262 53 421 189 561 51 54 165 128 226 148 22 7 45 16 50 20 6 4 39 13 75 19
75 14 93 25 84 52 -3 11 -1 50 6 86 36 203 132 378 255 462 86 59 205 92 328
89 52 -1 100 2 106 5 6 4 11 35 11 69 0 155 109 337 272 455 107 77 168 108
298 152 119 41 249 46 365 14z m1820 5 c185 -47 332 -125 435 -229 76 -77 150
-200 150 -249 0 -11 4 -22 9 -25 5 -3 12 -49 16 -101 l7 -95 104 0 c97 0 116
-3 234 -42 83 -26 194 -122 244 -209 67 -116 106 -241 106 -341 l0 -77 38 -10
c20 -5 55 -12 77 -16 22 -4 45 -10 50 -14 6 -4 28 -13 50 -20 108 -36 240
-143 308 -251 65 -103 117 -306 117 -455 0 -185 -72 -411 -171 -536 -34 -44
-37 -72 -8 -102 69 -73 109 -193 109 -327 0 -164 -49 -287 -160 -398 l-68 -68
47 -75 c26 -41 53 -90 61 -109 7 -19 18 -48 25 -65 49 -121 44 -374 -10 -522
-50 -136 -174 -270 -295 -319 -79 -31 -122 -45 -163 -50 -57 -8 -72 -26 -82
-99 -4 -27 -18 -74 -31 -103 -13 -29 -24 -55 -24 -58 0 -16 -102 -124 -145
-154 -44 -30 -141 -66 -204 -76 -41 -7 -71 -36 -71 -69 0 -8 -4 -23 -9 -33 -4
-9 -21 -42 -36 -73 -44 -91 -105 -154 -190 -194 -41 -19 -84 -35 -95 -35 -23
0 -32 -18 -50 -100 -6 -30 -30 -93 -53 -139 -68 -140 -174 -228 -343 -287 -58
-20 -300 -25 -349 -7 -17 6 -57 19 -90 29 -111 34 -224 105 -313 195 -89 90
-142 200 -154 320 -5 50 -7 1175 -6 2551 l3 2463 31 81 c18 44 38 91 45 104
121 210 346 360 599 400 62 10 195 4 255 -11z m-2667 -6751 c5 -7 17 -33 25
-58 20 -58 104 -293 157 -440 23 -63 52 -146 66 -185 31 -90 52 -118 98 -128
39 -10 50 -31 44 -83 l-3 -29 -170 -3 c-213 -3 -215 -3 -215 47 0 46 11 56 69
68 63 12 69 28 45 110 l-19 68 -180 0 -180 0 -25 -72 c-29 -85 -23 -97 48
-108 61 -9 72 -19 72 -66 0 -50 -3 -50 -205 -47 l-160 3 0 50 c0 49 0 49 39
60 22 7 48 22 58 36 9 13 49 112 89 219 39 107 86 236 104 285 59 158 57 175
-19 175 -23 0 -47 5 -54 12 -13 13 -17 80 -5 91 3 4 75 7 158 7 110 0 155 -3
163 -12z m680 -22 c6 -49 -5 -71 -40 -81 -18 -6 -34 -18 -36 -27 -6 -29 121
-273 151 -289 12 -7 29 18 87 135 41 80 70 150 67 159 -3 8 -19 18 -36 22 -34
7 -45 31 -39 81 l3 29 170 0 170 0 3 -38 c4 -48 -9 -64 -57 -72 -23 -4 -49
-17 -64 -33 -21 -23 -107 -157 -107 -167 0 -2 -34 -63 -75 -135 l-75 -132 0
-97 c0 -120 9 -136 82 -146 29 -4 56 -13 60 -19 14 -21 9 -84 -8 -90 -20 -8
-378 -8 -398 0 -20 8 -22 77 -3 92 7 6 36 14 66 18 66 9 71 20 71 151 0 106
12 78 -134 331 -42 74 -76 137 -76 141 0 4 -15 23 -32 42 -23 25 -46 38 -73
43 -54 10 -65 22 -65 66 0 21 6 41 13 43 6 3 93 5 192 4 l180 -2 3 -29z m1260
-33 l3 -61 -83 -105 c-46 -57 -112 -142 -148 -188 -36 -45 -118 -150 -182
-232 -65 -82 -115 -153 -112 -158 3 -5 92 -9 199 -9 l194 0 19 25 c11 14 23
46 27 71 10 72 12 74 67 74 l50 0 -7 -132 c-4 -73 -12 -139 -17 -145 -8 -10
-87 -13 -333 -13 -178 0 -330 3 -339 6 -12 5 -16 21 -16 65 l0 58 173 217 c94
119 216 271 269 338 65 81 93 123 85 128 -7 4 -82 8 -167 8 -180 0 -194 -5
-205 -72 -15 -103 -12 -98 -65 -98 -27 0 -51 3 -53 8 -5 8 11 250 18 270 4 10
71 12 312 10 l308 -3 3 -62z m778 53 c3 -8 6 -68 7 -133 l2 -118 -38 -3 c-50
-4 -63 8 -72 66 -13 85 -9 83 -158 80 l-132 -3 -3 -129 c-2 -97 1 -131 10
-138 7 -4 77 -8 156 -8 l143 0 -3 -52 -3 -53 -153 0 -152 0 2 -155 3 -155 136
-3 c157 -3 155 -4 173 86 l12 57 49 0 50 0 -4 -125 c-2 -77 -8 -128 -15 -132
-6 -5 -162 -7 -346 -5 l-335 2 0 50 0 49 60 11 c48 8 62 15 72 35 20 39 14
634 -7 654 -8 9 -40 19 -70 23 -55 8 -55 8 -58 47 -6 70 -27 66 338 66 276 0
332 -2 336 -14z m539 -41 l0 -50 -54 -8 c-30 -4 -60 -12 -68 -18 -10 -9 -13
-50 -13 -170 0 -88 4 -159 8 -159 12 0 287 281 301 308 10 19 8 25 -14 46 -21
20 -26 32 -23 63 l3 38 173 3 172 2 0 -50 c0 -35 -4 -50 -13 -50 -7 0 -37 -7
-65 -15 -43 -13 -70 -34 -167 -126 -63 -61 -115 -119 -115 -128 0 -22 222
-376 262 -417 21 -23 42 -33 75 -38 60 -8 73 -20 73 -67 0 -50 -3 -50 -205
-47 l-160 3 -3 47 c-3 44 -1 48 27 63 17 8 31 21 31 28 0 16 -54 117 -107 199
-23 38 -43 72 -43 76 0 4 -11 20 -24 36 l-23 30 -82 -80 -81 -80 0 -91 c0 -60
4 -94 13 -101 6 -5 37 -14 67 -19 l55 -8 0 -50 0 -50 -185 -3 c-102 -1 -195 0
-207 3 -19 4 -23 12 -23 45 0 45 7 51 75 65 37 8 53 16 62 35 9 18 13 103 13
320 0 217 -4 302 -13 320 -9 19 -25 27 -62 35 -68 14 -75 20 -75 65 0 21 6 41
13 43 6 3 100 5 207 4 l195 -2 0 -50z m-8717 -510 c-3 -3 -9 2 -12 12 -6 14
-5 15 5 6 7 -7 10 -15 7 -18z m10059 -1151 c99 -47 160 -135 189 -272 19 -91
17 -152 -6 -246 -44 -173 -161 -256 -362 -256 -96 0 -112 9 -122 70 -3 19 -3
180 2 357 7 320 7 322 31 347 28 30 55 36 146 29 45 -3 88 -13 122 -29z
m-8512 6 c18 -19 41 -84 188 -512 80 -233 81 -238 62 -252 -11 -9 -32 -16 -46
-16 -30 0 -35 9 -81 144 -53 156 -41 146 -163 146 -121 0 -105 15 -160 -145
-39 -115 -57 -145 -84 -145 -22 1 -51 24 -51 42 0 37 236 717 257 740 21 24
55 23 78 -2z m1075 0 c19 -19 20 -33 20 -377 0 -197 -4 -364 -9 -372 -11 -16
-67 -19 -82 -4 -6 6 -12 150 -16 371 -6 341 -5 363 12 382 23 25 50 25 75 0z
m1927 0 c10 -11 49 -81 88 -154 38 -74 75 -136 80 -138 10 -3 29 31 112 207
38 80 53 101 71 103 22 3 62 -22 62 -39 0 -4 -20 -50 -45 -103 -25 -53 -45
-98 -45 -100 0 -3 -22 -51 -50 -108 l-50 -103 0 -171 c0 -182 -1 -184 -48
-184 -43 1 -47 12 -53 187 l-5 168 -104 207 c-103 204 -104 207 -86 227 24 26
51 27 73 1z m3283 5 c24 -29 12 -69 -56 -190 -37 -66 -78 -140 -92 -165 -14
-25 -34 -61 -45 -80 -83 -143 -135 -246 -129 -252 4 -4 82 -9 172 -10 l165 -3
3 -28 c7 -56 1 -57 -253 -57 -203 0 -234 2 -239 16 -11 30 -6 59 20 104 14 25
36 63 48 85 13 22 52 92 88 155 158 277 189 336 181 344 -4 4 -71 4 -149 0
-78 -4 -153 -4 -167 0 -37 9 -53 42 -36 72 l12 24 232 0 c197 0 235 -2 245
-15z m704 -28 c3 -12 6 -111 6 -219 0 -109 3 -198 6 -198 3 0 11 6 18 13 14
12 23 20 113 95 62 51 98 54 123 9 l15 -28 -69 -62 -68 -62 72 -118 c77 -124
82 -149 39 -175 -34 -22 -58 -1 -124 108 -33 55 -66 102 -73 104 -7 3 -22 0
-32 -7 -17 -10 -20 -23 -20 -92 0 -44 -4 -85 -8 -92 -12 -19 -55 -25 -75 -11
-17 13 -19 41 -24 379 l-6 366 22 15 c29 21 76 6 85 -25z m-6576 21 c9 -9 12
-72 12 -220 0 -174 2 -208 14 -208 8 0 21 6 28 13 55 52 140 118 162 126 22 9
30 7 46 -9 38 -38 28 -60 -59 -129 -48 -39 -49 -59 -5 -116 13 -17 24 -35 24
-38 0 -4 15 -30 33 -59 49 -77 50 -85 22 -114 -13 -13 -30 -24 -38 -24 -17 0
-47 33 -77 85 -46 80 -91 145 -101 145 -5 0 -18 -9 -29 -20 -17 -17 -20 -33
-20 -100 0 -77 -1 -81 -25 -90 -16 -6 -34 -6 -50 0 l-25 10 0 213 c0 118 -3
281 -6 363 -6 133 -5 151 10 167 20 20 66 23 84 5z m1203 -57 c12 -31 50 -139
85 -240 72 -207 101 -277 111 -268 7 7 26 58 73 197 16 47 45 130 65 185 20
55 41 114 47 130 16 44 27 55 59 55 37 0 53 -29 40 -73 -9 -33 -196 -575 -225
-657 -18 -49 -30 -60 -63 -60 -29 0 -59 30 -71 72 -6 18 -40 119 -77 223 -130
370 -157 455 -151 470 7 19 44 34 68 27 10 -2 26 -27 39 -61z m9309 -106 c22
-22 43 -35 60 -35 17 0 38 13 60 35 37 38 60 44 80 20 34 -41 -37 -115 -119
-123 -56 -5 -113 17 -148 57 -27 31 -28 39 -6 63 23 25 34 23 73 -17z m456
-13 c6 -4 16 -17 23 -29 14 -28 3 -53 -32 -72 -53 -28 -105 50 -61 93 16 17
51 21 70 8z m-324 -139 c47 -17 50 -17 59 0 13 23 84 24 93 1 10 -26 7 -395
-5 -463 -21 -131 -67 -189 -171 -211 -69 -16 -135 -2 -188 38 -76 57 -86 91
-37 120 29 18 28 19 91 -32 30 -23 47 -29 91 -30 48 0 57 3 79 28 24 29 43 92
31 105 -4 3 -46 4 -95 3 -97 -4 -122 4 -178 58 -42 40 -72 109 -72 165 0 91
68 188 153 219 56 20 90 19 149 -1z m-7067 -13 c16 -18 20 -18 52 -5 78 33
188 9 244 -52 47 -49 63 -93 63 -163 0 -97 -45 -170 -132 -210 -46 -22 -94
-23 -179 -5 l-31 7 -4 -106 c-3 -91 -6 -107 -23 -120 -26 -20 -44 -20 -67 1
-17 15 -18 38 -18 319 0 172 4 314 10 328 12 32 58 36 85 6z m1379 14 c9 -4
21 -15 27 -26 11 -21 15 -10 -111 -343 -38 -99 -76 -202 -85 -230 -28 -83 -63
-106 -100 -65 -20 22 -17 39 22 144 19 50 23 74 16 85 -5 9 -24 41 -40 71 -17
30 -47 84 -67 118 -20 35 -36 66 -36 67 0 2 -16 30 -35 62 -19 32 -35 63 -35
70 0 21 31 43 61 43 32 0 30 2 133 -172 32 -53 63 -102 70 -107 10 -9 18 3 35
51 85 241 93 252 145 232z m4028 -11 c15 -14 24 -14 57 -5 110 34 231 -7 255
-84 8 -27 -16 -54 -47 -54 -12 0 -38 11 -58 24 -60 41 -106 38 -154 -9 l-35
-36 0 -115 c0 -92 -4 -122 -17 -145 -20 -33 -58 -39 -79 -11 -18 23 -20 422
-2 440 17 17 58 15 80 -5z m470 0 c15 -14 24 -14 57 -5 63 19 133 15 172 -11
60 -39 80 -97 90 -257 9 -157 4 -180 -42 -180 -15 0 -31 6 -36 13 -6 6 -13 63
-17 125 -7 107 -23 179 -47 209 -6 7 -29 13 -50 13 -31 0 -45 -7 -74 -35 l-35
-36 0 -115 c0 -131 -14 -174 -58 -174 -49 0 -52 13 -52 237 0 149 3 212 12
221 17 17 58 15 80 -5z m-8980 -10 c16 -14 18 -35 18 -207 0 -105 -4 -197 -9
-205 -11 -17 -67 -19 -83 -3 -8 8 -14 75 -16 202 -4 172 -3 193 13 210 22 24
52 26 77 3z m1538 -3 c73 -37 128 -144 100 -195 -7 -13 -20 -27 -29 -31 -9 -5
-79 -10 -155 -13 -102 -5 -141 -10 -144 -19 -2 -7 15 -31 37 -53 32 -30 50
-39 77 -39 40 0 80 18 108 49 23 25 63 27 88 4 25 -23 23 -36 -13 -71 -102
-100 -263 -95 -353 10 -93 108 -61 283 64 352 59 33 161 36 220 6z m1257 8
c27 -10 38 -10 53 0 25 15 63 15 78 0 9 -9 12 -73 12 -225 0 -203 -1 -213 -20
-223 -23 -13 -60 -4 -75 17 -9 12 -17 12 -55 -1 -56 -19 -93 -20 -145 -2 -194
68 -212 331 -29 430 35 18 134 21 181 4z m1040 0 c27 -10 38 -10 53 0 25 15
63 15 78 0 9 -9 12 -73 12 -225 0 -203 -1 -213 -20 -223 -23 -13 -60 -4 -75
17 -9 12 -17 12 -55 -1 -81 -28 -154 -14 -223 44 -43 36 -62 70 -77 135 -20
89 34 200 118 245 43 22 138 26 189 8z m1976 -4 c76 -39 131 -142 106 -198
-17 -36 -57 -46 -195 -46 -78 0 -125 -4 -130 -11 -19 -31 60 -99 115 -99 34 0
81 22 106 50 20 22 64 27 83 8 33 -33 -14 -99 -95 -133 -51 -22 -135 -19 -188
6 -171 80 -183 315 -20 410 42 24 61 29 118 29 43 0 80 -6 100 -16z m959 4
c29 -9 41 -9 50 0 17 17 64 15 82 -4 14 -13 16 -47 16 -217 0 -111 -4 -208 -9
-216 -12 -19 -68 -18 -87 1 -13 12 -23 13 -52 6 -70 -19 -102 -20 -148 -7
-128 38 -200 194 -145 314 24 53 49 79 102 110 50 28 124 33 191 13z m1467 -8
c98 -49 145 -184 78 -222 -13 -8 -75 -15 -161 -18 -102 -4 -141 -8 -144 -18
-2 -7 15 -31 37 -53 60 -56 110 -54 184 7 16 13 38 24 49 24 24 0 58 -27 58
-45 0 -22 -61 -76 -107 -96 -48 -20 -157 -26 -168 -9 -3 6 -15 10 -26 10 -34
0 -106 82 -123 140 -19 64 -19 77 -5 135 13 52 67 118 118 145 50 27 158 27
210 0z m1461 0 c69 -35 110 -97 110 -165 0 -60 -23 -70 -185 -73 -167 -4 -177
-10 -115 -72 33 -33 47 -40 80 -40 38 0 109 34 125 60 17 28 85 -1 85 -37 0
-25 -72 -87 -118 -100 -74 -23 -130 -17 -210 20 -38 18 -89 97 -101 157 -21
100 29 201 124 249 54 28 151 29 205 1z m800 2 c21 -17 21 -22 18 -214 -2
-108 -7 -200 -11 -204 -9 -9 -76 -9 -85 1 -4 3 -8 95 -10 204 -4 175 -2 199
13 214 21 22 47 22 75 -1z"/>
<path d="M6795 12504 c-71 -20 -176 -57 -180 -65 -4 -5 -13 -9 -20 -9 -25 0
-148 -85 -205 -142 -31 -30 -71 -84 -90 -119 -30 -56 -35 -75 -38 -153 -6
-108 4 -131 86 -196 30 -25 80 -67 109 -94 46 -42 53 -53 53 -86 0 -76 -87
-106 -152 -53 -18 15 -35 31 -38 34 -15 19 -157 132 -175 139 -11 4 -61 13
-112 20 -139 19 -251 -8 -326 -78 -73 -68 -133 -198 -143 -308 -10 -117 -5
-127 144 -278 73 -75 137 -136 142 -136 29 0 70 142 70 239 0 62 3 72 29 100
35 37 76 41 115 10 27 -21 27 -22 23 -128 -4 -114 -16 -175 -43 -231 -9 -19
-26 -55 -38 -79 -44 -92 -225 -241 -294 -241 -10 0 -23 -5 -30 -12 -7 -7 -51
-14 -102 -16 -98 -5 -122 4 -134 52 -16 62 37 116 114 116 53 0 160 40 160 59
0 5 -57 68 -127 140 -141 146 -138 145 -253 117 -121 -30 -190 -66 -266 -141
-64 -62 -93 -113 -120 -212 -54 -192 -37 -388 47 -572 39 -83 140 -184 229
-228 125 -62 184 -77 310 -77 104 -1 122 2 184 27 97 39 167 88 265 185 93 91
118 100 164 58 60 -55 40 -106 -88 -223 l-77 -71 39 -54 c67 -91 83 -136 83
-235 0 -68 -6 -103 -27 -162 -26 -74 -95 -192 -130 -223 -47 -41 -107 -30
-136 25 -20 37 -20 38 47 142 104 159 105 288 3 377 -38 33 -44 33 -123 9
-165 -52 -402 -28 -563 56 -52 27 -78 29 -107 5 -54 -43 -83 -174 -64 -279 17
-91 51 -174 101 -242 26 -37 90 -75 144 -85 53 -11 115 -30 114 -36 0 -3 -28
-27 -61 -55 -169 -138 -204 -183 -238 -308 -54 -202 3 -409 153 -560 113 -114
205 -142 379 -118 121 18 218 57 303 126 65 51 159 192 167 249 3 28 -18 56
-42 56 -65 0 -240 88 -327 165 -46 41 -53 51 -53 83 1 41 13 63 48 81 33 17
61 8 117 -38 26 -21 64 -47 84 -58 20 -10 38 -21 41 -24 9 -12 104 -40 151
-46 26 -3 70 0 98 7 109 26 254 150 312 267 33 66 34 71 34 195 1 139 9 161
62 171 80 15 118 -49 117 -198 -1 -161 -65 -298 -203 -432 -35 -35 -67 -63
-72 -63 -4 0 -14 -6 -21 -14 -8 -7 -43 -29 -78 -48 -72 -39 -71 -37 -99 -134
-45 -150 -140 -289 -257 -372 -39 -29 -75 -52 -81 -52 -5 0 -14 -5 -20 -11
-16 -16 -106 -49 -177 -65 -32 -7 -63 -18 -67 -25 -24 -39 97 -214 178 -257
48 -26 119 -44 167 -42 74 3 75 3 81 -37 30 -190 113 -337 195 -345 23 -3 25
1 31 52 8 69 62 210 88 230 4 3 15 19 25 35 11 17 37 51 59 77 21 26 36 51 32
57 -12 21 -85 12 -119 -14 -48 -37 -108 -35 -135 4 -25 35 -25 35 -6 86 41
107 238 142 382 68 l53 -27 67 23 c38 12 89 25 115 28 62 7 160 -13 223 -47
49 -27 50 -28 53 -79 2 -42 -1 -56 -15 -67 -26 -19 -80 -17 -143 6 -66 24 -86
25 -155 5 -137 -40 -289 -192 -338 -339 -29 -84 -15 -332 22 -403 5 -10 17
-35 27 -56 11 -21 34 -56 52 -77 35 -42 128 -100 159 -100 10 0 25 -6 32 -12
16 -17 252 -18 272 -2 8 6 28 14 45 17 47 9 137 53 189 92 86 66 142 140 168
224 16 49 17 183 17 1727 l0 1674 -32 31 c-37 34 -126 79 -203 100 -126 34
-263 2 -356 -84 -40 -36 -109 -138 -109 -159 0 -8 -8 -24 -17 -37 -13 -19 -17
-47 -17 -130 0 -101 2 -110 35 -176 62 -126 170 -213 288 -234 35 -6 72 -18
82 -27 23 -20 25 -80 4 -107 -21 -29 -81 -46 -124 -35 -20 5 -51 13 -69 18
-43 11 -132 65 -189 115 -62 55 -125 146 -160 230 -26 66 -28 79 -28 216 0 90
4 155 12 170 6 13 18 43 27 66 41 110 158 242 260 292 94 47 152 61 251 61
109 -1 178 -16 283 -62 23 -10 47 -16 52 -13 14 8 13 722 0 730 -6 3 -31 -12
-58 -34 -126 -106 -262 -128 -299 -49 -26 52 13 107 87 123 57 12 132 72 188
150 25 35 62 117 62 137 0 13 6 30 13 37 8 8 12 55 12 161 0 106 -4 153 -12
162 -7 6 -13 21 -13 32 0 31 -74 148 -127 201 -77 76 -172 129 -315 174 -43
14 -163 23 -193 15z"/>
<path d="M8525 12479 c-99 -30 -185 -74 -235 -117 -128 -111 -174 -192 -211
-364 -11 -54 -10 -82 10 -193 21 -120 66 -211 141 -285 57 -57 72 -66 153 -95
37 -13 52 -25 65 -52 15 -31 15 -36 0 -61 -24 -40 -56 -54 -108 -46 -61 8
-122 39 -194 96 -43 35 -62 45 -68 36 -9 -15 -11 -728 -2 -752 6 -16 23 -12
99 23 22 11 78 37 125 59 230 108 319 152 326 164 11 17 53 134 63 173 5 17
19 53 32 80 26 53 43 65 260 164 41 18 120 56 177 83 l102 50 0 45 c0 41 5 51
40 85 37 34 46 38 93 38 91 -1 141 -49 141 -135 0 -64 -28 -106 -84 -129 -54
-21 -69 -20 -125 9 -31 17 -55 23 -69 19 -23 -7 -163 -74 -355 -168 l-125 -61
-16 -50 c-33 -99 -51 -150 -60 -170 -5 -11 -12 -33 -17 -50 -9 -31 -56 -58
-292 -168 -44 -21 -81 -42 -81 -46 0 -11 38 -36 65 -43 11 -3 56 -19 100 -36
238 -89 217 -83 250 -68 134 62 194 90 290 136 61 29 144 68 185 87 126 58
124 56 135 115 30 148 213 168 271 29 8 -18 14 -40 14 -47 0 -30 -42 -101 -69
-117 -42 -24 -131 -23 -164 3 -14 11 -30 20 -35 20 -10 0 -98 -40 -292 -132
-58 -28 -134 -63 -170 -80 -36 -16 -87 -41 -114 -55 -57 -30 -116 -28 -185 5
-25 12 -50 22 -55 22 -6 0 -40 12 -76 26 -36 14 -81 32 -100 39 -19 7 -61 23
-92 35 l-58 22 -64 -31 c-35 -17 -66 -38 -70 -47 -3 -8 -6 -70 -6 -137 l0
-122 51 -57 51 -58 129 0 c128 0 130 0 141 25 13 30 69 58 100 50 13 -3 34
-15 48 -25 21 -16 25 -27 25 -70 0 -44 -4 -55 -28 -76 -45 -38 -92 -33 -137
16 l-37 40 -128 0 -127 0 -35 30 c-19 17 -38 28 -44 25 -10 -7 -13 -164 -3
-189 5 -14 53 -16 438 -16 l432 0 23 31 c46 62 113 69 168 17 39 -37 39 -113
0 -152 -45 -46 -128 -36 -166 20 l-24 34 -436 -2 -436 -3 -3 -50 c-5 -72 3
-75 181 -75 l150 0 53 -50 53 -50 203 0 c112 0 212 3 223 6 11 3 29 20 40 37
24 38 71 54 117 41 37 -11 78 -64 78 -101 0 -56 -56 -113 -110 -113 -34 0 -79
28 -95 60 l-16 30 -189 0 c-104 0 -191 -3 -194 -8 -2 -4 34 -47 81 -96 75 -78
83 -90 70 -103 -13 -13 -31 1 -152 126 -76 78 -144 141 -152 141 -10 0 -13
-36 -13 -180 0 -99 4 -180 9 -180 5 0 23 -13 40 -29 26 -24 31 -36 31 -76 0
-38 -5 -52 -29 -75 -36 -36 -73 -46 -112 -30 -45 19 -69 56 -69 108 0 39 5 49
40 81 l40 37 -2 189 -3 190 -124 3 c-82 2 -128 -1 -137 -9 -12 -10 -14 -107
-14 -579 0 -509 2 -568 16 -574 9 -3 44 -6 79 -6 l63 0 26 44 c36 61 81 87
151 87 86 0 138 -38 170 -123 16 -45 16 -49 -1 -95 -10 -26 -28 -58 -39 -71
-24 -28 -98 -62 -134 -62 -44 0 -124 53 -146 96 -11 22 -24 42 -30 46 -16 12
-130 9 -143 -4 -9 -9 -12 -77 -12 -243 l0 -231 56 -67 56 -67 202 0 202 0 22
39 c30 53 80 81 144 81 91 0 158 -66 158 -156 0 -56 -20 -95 -67 -131 -30 -23
-46 -28 -92 -28 -67 1 -99 20 -142 82 l-30 43 -211 0 -210 0 -35 30 c-19 17
-38 28 -44 25 -9 -6 -14 -717 -4 -727 3 -2 27 17 55 44 49 47 51 48 115 48 63
0 66 -1 104 -40 78 -80 60 -194 -39 -245 -35 -18 -44 -47 -38 -116 6 -56 15
-66 96 -104 85 -40 192 -64 282 -64 76 1 115 10 115 27 0 7 -30 43 -67 81
l-68 68 0 197 c0 186 -1 197 -21 214 -83 70 -89 80 -89 149 0 101 49 153 145
153 96 0 145 -52 145 -153 0 -69 -6 -79 -89 -149 -20 -17 -21 -28 -21 -199 l0
-180 52 -56 c69 -72 103 -96 127 -88 55 17 181 198 181 258 0 9 7 54 16 99 11
59 22 88 38 102 21 18 21 24 24 404 l3 385 -59 56 c-32 31 -111 106 -175 167
l-117 111 0 290 0 289 -44 31 c-52 37 -72 89 -61 159 5 34 15 51 47 79 37 31
48 35 101 35 98 0 147 -51 147 -154 0 -52 -3 -58 -43 -98 -24 -24 -51 -49 -60
-56 -15 -11 -17 -43 -17 -279 l0 -266 66 -64 c37 -35 72 -62 78 -60 7 2 13 62
16 176 l5 172 130 128 130 129 0 70 c0 63 3 74 30 107 62 76 167 80 236 9 29
-30 33 -39 33 -96 1 -72 -23 -116 -76 -144 -31 -16 -115 -16 -151 0 -14 7 -43
-17 -142 -115 l-125 -124 0 -198 0 -198 60 -64 60 -64 0 -396 0 -395 23 0 c33
0 98 34 128 67 39 43 82 142 100 233 19 95 28 110 61 110 l31 0 -7 233 c-20
757 -20 723 1 743 10 11 59 55 109 99 155 139 148 131 135 173 -32 106 -3 204
77 252 98 60 235 21 286 -82 19 -37 21 -136 4 -169 -55 -103 -162 -145 -262
-104 -44 19 -35 24 -192 -121 l-107 -99 8 -255 c15 -543 20 -659 30 -669 22
-22 148 31 193 80 70 78 98 170 88 289 -7 88 -5 90 66 90 59 0 167 19 205 36
17 8 36 14 42 14 22 0 116 67 154 109 34 37 51 68 78 136 39 101 39 304 0 410
-39 105 -82 163 -199 264 -34 30 -59 58 -55 62 8 7 73 44 147 83 60 32 129
105 161 170 38 77 47 208 20 295 -19 63 -34 84 -86 124 -35 26 -39 27 -171 27
-74 0 -149 5 -166 11 -40 14 -64 61 -50 100 18 51 43 59 193 59 153 0 167 5
216 74 49 66 45 67 -253 64 l-260 -3 -25 -30 c-14 -16 -49 -57 -78 -90 -116
-132 -105 -107 -105 -248 l0 -126 36 -17 c19 -9 47 -33 62 -52 24 -31 27 -44
26 -105 l0 -71 -49 -43 c-47 -41 -53 -43 -110 -43 -59 0 -64 2 -111 45 l-49
45 0 68 c0 59 4 73 27 104 15 19 43 43 62 52 l36 17 0 136 0 136 46 56 c25 31
73 87 107 125 34 38 68 77 75 88 12 17 33 18 316 18 344 0 332 -3 356 80 26
93 40 177 40 244 0 76 -18 194 -33 214 -7 9 -97 12 -391 12 l-381 0 -190 -196
c-104 -108 -193 -204 -197 -213 -4 -9 -7 -102 -7 -206 -1 -157 2 -194 15 -213
8 -12 21 -22 28 -22 14 0 59 -45 75 -77 6 -12 11 -46 11 -75 0 -97 -61 -158
-158 -158 -106 0 -166 61 -164 167 2 59 25 103 70 132 64 42 62 35 62 270 l1
216 80 85 c44 47 141 147 216 223 l137 137 373 0 c312 0 375 2 379 14 9 23
-25 76 -81 132 -76 73 -144 109 -265 140 -95 23 -125 19 -178 -25 -55 -46 -91
-58 -124 -40 -34 18 -47 40 -48 77 0 29 10 43 65 94 l65 61 0 77 c0 82 -17
145 -64 239 -82 161 -221 221 -430 188 -95 -15 -101 -18 -145 -60 -90 -86
-120 -95 -170 -48 -47 44 -42 71 28 144 72 76 80 91 88 167 8 84 -18 177 -74
263 -25 37 -48 67 -51 67 -4 0 -24 16 -44 35 -38 36 -150 100 -203 117 -156
48 -179 48 -233 2 l-42 -36 0 -209 c0 -138 4 -209 10 -209 40 0 110 -92 110
-145 0 -35 -44 -101 -83 -126 -40 -25 -121 -22 -160 7 -32 24 -67 84 -67 117
0 55 42 117 98 146 22 12 22 14 22 217 0 191 1 208 20 231 38 48 28 51 -65 22z"/>
<path d="M8541 11931 c-36 -33 -41 -73 -14 -111 24 -35 33 -40 79 -40 55 0 85
31 86 91 0 36 -4 47 -28 66 -40 32 -84 30 -123 -6z"/>
<path d="M9339 11531 c-36 -36 -37 -70 -3 -110 20 -24 34 -31 60 -31 76 0 112
89 58 144 -36 35 -77 34 -115 -3z"/>
<path d="M9421 10899 c-36 -34 -44 -67 -25 -98 37 -57 80 -66 129 -27 23 18
29 31 29 61 0 69 -84 110 -133 64z"/>
<path d="M8481 10176 c-26 -47 17 -99 64 -78 29 13 38 42 26 76 -14 36 -71 38
-90 2z"/>
<path d="M9015 9995 c-30 -29 -31 -45 -4 -79 13 -17 30 -26 49 -26 29 0 70 39
70 67 0 21 -46 63 -70 63 -11 0 -32 -11 -45 -25z"/>
<path d="M9334 9831 c-36 -22 -48 -62 -34 -111 13 -44 36 -59 91 -60 35 0 50
5 66 23 30 32 36 72 18 111 -27 56 -85 71 -141 37z"/>
<path d="M9032 9743 c-7 -3 -19 -18 -27 -33 -12 -23 -13 -34 -4 -53 16 -34 54
-51 82 -35 51 27 59 62 22 102 -23 25 -45 31 -73 19z"/>
<path d="M9673 9560 c-36 -15 -56 -55 -50 -100 7 -54 38 -79 99 -80 39 0 50 4
67 26 29 36 28 95 -1 129 -25 28 -79 40 -115 25z"/>
<path d="M8350 9310 c-35 -8 -49 -53 -29 -88 31 -56 119 -33 119 30 0 47 -38
71 -90 58z"/>
<path d="M8774 9119 c-28 -31 -25 -96 5 -120 82 -66 184 45 114 124 -23 25
-94 23 -119 -4z"/>
<path d="M9903 9078 c-44 -32 -55 -54 -55 -109 1 -79 50 -129 126 -129 74 0
126 55 126 135 0 42 -5 52 -39 86 -33 33 -45 39 -82 39 -30 0 -55 -7 -76 -22z"/>
<path d="M9393 8991 c-36 -22 -47 -49 -38 -90 17 -79 150 -80 156 -1 4 55 -1
71 -33 90 -41 25 -45 25 -85 1z"/>
<path d="M8336 8625 c-35 -35 -37 -111 -3 -143 41 -38 74 -45 115 -22 63 36
78 93 39 151 -20 30 -28 34 -74 37 -44 3 -55 -1 -77 -23z"/>
<path d="M8687 7922 c-55 -57 -18 -142 62 -142 81 0 120 88 63 143 -39 37 -89
37 -125 -1z"/>
<path d="M8645 7503 c-39 -10 -55 -34 -55 -84 0 -40 4 -51 27 -69 31 -24 74
-22 105 7 25 22 25 104 1 125 -22 19 -52 27 -78 21z"/>
<path d="M8203 7174 c-42 -21 -58 -65 -38 -105 28 -53 86 -65 131 -26 22 19
27 32 26 62 -3 66 -59 99 -119 69z"/>
<path d="M8125 6979 c-7 -11 45 -93 60 -93 6 -1 11 13 13 30 3 27 -2 34 -32
52 -20 12 -38 17 -41 11z"/>
<path d="M6092 5741 c-12 -7 -30 -52 -94 -231 -42 -121 -42 -121 -27 -131 18
-11 230 -11 248 0 12 8 6 34 -34 153 -64 191 -77 219 -93 209z"/>
<path d="M10587 4133 c-4 -3 -7 -140 -7 -304 l0 -299 26 -6 c24 -6 67 3 136
28 43 16 95 81 112 139 21 68 20 201 0 270 -23 78 -60 125 -121 154 -49 24
-131 34 -146 18z"/>
<path d="M2215 3999 c-37 -102 -55 -156 -55 -166 0 -9 19 -13 63 -13 35 0 66
3 69 6 8 7 -38 140 -57 168 -11 15 -15 16 -20 5z"/>
<path d="M13220 3803 c-31 -6 -75 -46 -90 -84 -24 -56 9 -133 70 -164 39 -20
69 -19 104 4 65 43 85 123 45 187 -29 47 -72 66 -129 57z"/>
<path d="M6356 3785 c-21 -7 -39 -15 -40 -17 -1 -1 -12 -16 -24 -32 -52 -69
-9 -183 74 -199 132 -25 208 147 101 227 -43 31 -67 36 -111 21z"/>
<path d="M4535 3787 c-36 -17 -59 -42 -50 -57 3 -6 46 -10 101 -10 85 0 94 2
94 18 0 45 -88 74 -145 49z"/>
<path d="M5840 3792 c-64 -17 -100 -66 -100 -136 0 -38 6 -52 33 -82 30 -33
38 -36 86 -36 46 0 57 4 86 32 37 36 49 81 34 134 -15 54 -90 102 -139 88z"/>
<path d="M6875 3792 c-58 -12 -95 -65 -95 -137 0 -37 6 -52 33 -81 30 -33 38
-36 87 -36 49 0 57 3 87 36 27 29 33 44 33 81 0 91 -65 153 -145 137z"/>
<path d="M8824 3794 c-28 -6 -68 -49 -59 -63 4 -7 44 -11 101 -11 85 0 94 2
94 18 0 40 -73 69 -136 56z"/>
<path d="M9812 3792 c-36 -5 -89 -63 -97 -105 -16 -85 39 -151 125 -150 80 1
127 58 117 142 -8 70 -76 123 -145 113z"/>
<path d="M11243 3789 c-33 -10 -66 -45 -57 -61 7 -11 191 -10 199 1 3 5 -5 21
-17 35 -26 29 -78 39 -125 25z"/>
<path d="M12713 3793 c-30 -6 -78 -52 -66 -64 5 -5 52 -8 104 -7 84 3 94 5 94
22 0 11 -14 26 -35 37 -34 19 -52 21 -97 12z"/>
<path d="M593 10763 c4 -3 0 -11 -9 -17 -13 -10 -13 -12 5 -13 15 -1 21 4 21
18 0 10 -5 19 -12 19 -6 0 -8 -3 -5 -7z"/>
<path d="M643 10135 c0 -8 4 -15 9 -15 4 0 8 7 8 15 0 8 -4 15 -8 15 -5 0 -9
-7 -9 -15z"/>
<path d="M646 5497 c3 -10 9 -15 12 -12 3 3 0 11 -7 18 -10 9 -11 8 -5 -6z"/>
<path d="M621 4804 c0 -11 3 -14 6 -6 3 7 2 16 -1 19 -3 4 -6 -2 -5 -13z"/>
</g>
</svg>
